# xmcd
# 
# Track frame offsets:
#     150
#     20515
#     35256
#     56345
#     80064
#     94494
#     112831
#     149997
#     168490
#     189305
#     209683
# 
# Disc length: 3056
# 
# Revision: 21
# Processed by: cddbd v1.5.2PL0 Copyright (c) Steve Scherf et al.
# Submitted via: fre:ac v1.0.27
# 
DISCID=9d0bee0b
DTITLE=Bob Dylan - The Bootleg Series Vol. 5  Live 1975 - The Rolling Thunder Revue
DYEAR=2002
DGENRE=Folk
TTITLE0=It's All Over Now, Baby Blue
TTITLE1=Love Minus Zero - No Limit
TTITLE2=Tangled Up In Blue
TTITLE3=The Water Is Wide
TTITLE4=It Takes A Lot To Laugh, It Takes A Train To Cry
TTITLE5=Oh, Sister
TTITLE6=Hurricane
TTITLE7=One More Cup Of Coffee (Valley Below)
TTITLE8=Sara
TTITLE9=Just Like A Woman
TTITLE10=Knockin' On Heaven's Door
EXTD=CD 2/2\n(c)2002 Sony Music Entertainment Inc/LEGACY\nProduced byJeff Rosen and Steve Berkowitz\nBox upc 51014002000\nCD 2 upc 5099751014027 YEAR: 2002
EXTT0=
EXTT1=
EXTT2=
EXTT3=
EXTT4=
EXTT5=
EXTT6=
EXTT7=
EXTT8=
EXTT9=
EXTT10=
PLAYORDER=
